<?xml version="1.0" encoding="UTF-8"?>
<svg width="37px" height="39px" viewBox="0 0 37 39" version="1.1" xmlns="http://www.w3.org/2000/svg" xmlns:xlink="http://www.w3.org/1999/xlink">
    <!-- Generator: Sketch 53.2 (72643) - https://sketchapp.com -->
    <title>home_tab_icon_default</title>
    <desc>Created with Sketch.</desc>
    <g id="首页" stroke="none" stroke-width="1" fill="none" fill-rule="evenodd">
        <g id="首页7tab_icon" transform="translate(-78.000000, -2944.000000)" fill="#979797" fill-rule="nonzero">
            <g id="导航二态" transform="translate(1.000000, 2929.000000)">
                <g id="Item-1" transform="translate(47.000000, 15.000000)">
                    <g id="shouye" transform="translate(30.000000, 0.000000)">
                        <path d="M18.9964587,3.03072597 C18.5508498,2.64924202 17.8940782,2.64924202 17.4484694,3.03072597 L3.15934021,15.2891051 C2.89478273,15.5156378 2.7425199,15.8465348 2.74257058,16.1948273 L2.74257058,34.1666019 C2.74257058,34.8248155 3.27567267,35.3583417 3.93333488,35.3583417 L32.5115932,35.3583417 C32.827383,35.3583417 33.13028,35.2328061 33.3535721,35.0093019 C33.5769245,34.7857289 33.7023758,34.4826259 33.7023575,34.1666019 L33.7023575,16.1948698 C33.7024081,15.8465772 33.5501453,15.5156802 33.2855878,15.2891476 L18.9964587,3.03068356 L18.9964587,3.03072597 Z M35.1475433,13.38071 C35.9546837,14.0704377 36.4195577,15.078845 36.4198209,16.1405417 L36.4198209,34.4100392 C36.4198209,36.417336 34.7892156,38.0445485 32.7778049,38.0445485 L3.6419736,38.0445485 C1.6305629,38.0445485 -1.5435612e-08,36.417336 -1.5435612e-08,34.4100392 L-1.5435612e-08,16.1405417 C-0.000431424865,15.0780153 0.464506337,14.0686017 1.27227758,13.378335 L15.840172,0.919141269 C17.2039294,-0.24698243 19.2158915,-0.24698243 20.5796065,0.919141269 L35.1475433,13.38071 Z M7.8035627,21.5043884 L28.6272002,21.5043884 C29.4704091,21.5043884 30.1539842,22.1879635 30.1539842,23.0311724 C30.1539842,23.8743813 29.4704091,24.5579564 28.6272002,24.5579564 L7.8035627,24.5579564 C6.96035382,24.5579564 6.27677869,23.8743813 6.27677869,23.0311724 C6.27677869,22.1879635 6.96035382,21.5043884 7.8035627,21.5043884 Z" id="形状"></path>
                    </g>
                </g>
            </g>
        </g>
    </g>
</svg>