<?xml version="1.0" encoding="UTF-8"?>
<svg width="34px" height="38px" viewBox="0 0 34 38" version="1.1" xmlns="http://www.w3.org/2000/svg" xmlns:xlink="http://www.w3.org/1999/xlink">
    <!-- Generator: Sketch 53.2 (72643) - https://sketchapp.com -->
    <title>my_tab_icon_pressed@2x</title>
    <desc>Created with Sketch.</desc>
    <g id="首页" stroke="none" stroke-width="1" fill="none" fill-rule="evenodd">
        <g id="首页7tab_icon" transform="translate(-640.000000, -2947.000000)" fill="#242424" fill-rule="nonzero">
            <g id="导航二态" transform="translate(1.000000, 2929.000000)">
                <g id="Item-4" transform="translate(609.000000, 18.000000)">
                    <g id="wode-2" transform="translate(30.000000, 0.000000)">
                        <path d="M16.6875784,25.3031368 C13.3119197,25.3031368 10.1412798,23.987202 7.75257215,21.6032622 C5.36386449,19.2145546 4.05269762,16.0439147 4.05269762,12.668256 C4.05269762,9.29259724 5.36863237,6.12195734 7.75257215,3.73324969 C10.1412798,1.34454203 13.3119197,0.0333751568 16.6875784,0.0333751568 C20.0632371,0.0333751568 23.233877,1.34930991 25.6225847,3.73324969 C28.0112923,6.12195734 29.3224592,9.29259724 29.3224592,12.668256 C29.3224592,16.0439147 28.0065245,19.2145546 25.6225847,21.6032622 C23.233877,23.987202 20.0632371,25.3031368 16.6875784,25.3031368 Z M16.6875784,2.88933501 C11.2951066,2.88933501 6.91342535,7.27578419 6.91342535,12.6634881 C6.91342535,18.0559598 11.2998745,22.4376412 16.6875784,22.4376412 C22.0752823,22.4376412 26.4617315,18.051192 26.4617315,12.6634881 C26.4617315,7.27578419 22.0800502,2.88933501 16.6875784,2.88933501 Z" id="形状"></path>
                        <path d="M1.45420326,37.9570891 C1.36361355,37.9570891 1.27302384,37.9475533 1.18243413,37.9332497 C0.405269762,37.7854454 -0.100125471,37.0321205 0.0476787955,36.259724 C0.781932246,32.4454203 2.83688833,28.9696361 5.83588457,26.4712673 C7.32823087,25.2268507 9.00175659,24.2589711 10.8135508,23.5867001 C12.6920954,22.8953576 14.6659975,22.5425345 16.6828105,22.5425345 C18.6996236,22.5425345 20.6782936,22.8953576 22.5520703,23.5867001 C24.3638645,24.2542033 26.0421581,25.2268507 27.5297365,26.4712673 C30.5287327,28.974404 32.5836888,32.4501882 33.3179423,36.259724 C33.4657465,37.0368883 32.9603513,37.7854454 32.183187,37.9332497 C31.4060226,38.081054 30.6574655,37.5756587 30.5096612,36.7984944 C29.2414053,30.1902133 23.4293601,25.3984944 16.6875784,25.3984944 C9.94579674,25.3984944 4.13375157,30.1949812 2.85595985,36.7984944 C2.7272271,37.4803011 2.12647428,37.9570891 1.45420326,37.9570891 Z" id="路径"></path>
                    </g>
                </g>
            </g>
        </g>
    </g>
</svg>