<?xml version="1.0" encoding="UTF-8"?>
<svg width="38px" height="38px" viewBox="0 0 38 38" version="1.1" xmlns="http://www.w3.org/2000/svg" xmlns:xlink="http://www.w3.org/1999/xlink">
    <!-- Generator: Sketch 53.2 (72643) - https://sketchapp.com -->
    <title>search_tab_icon_pressed@2x</title>
    <desc>Created with Sketch.</desc>
    <g id="首页" stroke="none" stroke-width="1" fill="none" fill-rule="evenodd">
        <g id="首页7tab_icon" transform="translate(-264.000000, -2946.000000)" fill="#242424" fill-rule="nonzero">
            <g id="导航二态" transform="translate(1.000000, 2929.000000)">
                <g id="Item-2" transform="translate(235.000000, 17.000000)">
                    <g id="sousuo" transform="translate(28.000000, 0.000000)">
                        <path d="M27.2192499,25.2985372 L37.602193,35.6814378 C38.1326023,36.2118472 38.1326023,37.0717836 37.602193,37.602193 C37.0717836,38.1326023 36.2118472,38.1326023 35.6814378,37.602193 L25.2984948,27.2192499 C22.6222129,29.4627835 19.1723236,30.8135725 15.4067862,30.8135725 C6.89782617,30.8135725 0,23.9157463 0,15.4067862 C0,6.89782617 6.89782617,0 15.4067862,0 C23.9157463,0 30.8135725,6.89782617 30.8135725,15.4067862 C30.8135725,19.1722387 29.4627411,22.6222129 27.2192499,25.2985372 Z M15.4067862,28.0972245 C22.4155158,28.0972245 28.0972245,22.4155158 28.0972245,15.4067862 C28.0972245,8.39805667 22.4155158,2.71634799 15.4067862,2.71634799 C8.39805667,2.71634799 2.71634799,8.39805667 2.71634799,15.4067862 C2.71634799,22.4155158 8.39805667,28.0972245 15.4067862,28.0972245 Z" id="形状"></path>
                    </g>
                </g>
            </g>
        </g>
    </g>
</svg>